<mxfile host="app.diagrams.net" modified="2023-07-11T03:45:19.463Z" agent="Mozilla/5.0 (Windows NT 10.0; Win64; x64) AppleWebKit/537.36 (KHTML, like Gecko) Chrome/114.0.0.0 Safari/537.36" etag="MKiUM-IUuzHBkVbU5bbx" version="21.6.1" type="github">
  <diagram name="페이지-1" id="9r45bM8FNoFLCw0Gwnq-">
    <mxGraphModel dx="1050" dy="581" grid="1" gridSize="10" guides="1" tooltips="1" connect="1" arrows="1" fold="1" page="1" pageScale="1" pageWidth="827" pageHeight="1169" background="#ffffff" math="0" shadow="1">
      <root>
        <mxCell id="0" />
        <mxCell id="1" parent="0" />
        <mxCell id="nJoHlSuJZ4k1W6Dq8Xgp-1" value="교수" style="rounded=0;whiteSpace=wrap;html=1;sketch=1;curveFitting=1;jiggle=2;fillColor=#fff2cc;strokeColor=#d6b656;" vertex="1" parent="1">
          <mxGeometry x="190" y="200" width="120" height="60" as="geometry" />
        </mxCell>
        <mxCell id="nJoHlSuJZ4k1W6Dq8Xgp-2" value="소속" style="rhombus;whiteSpace=wrap;html=1;sketch=1;curveFitting=1;jiggle=2;fillColor=#e1d5e7;strokeColor=#9673a6;" vertex="1" parent="1">
          <mxGeometry x="360" y="200" width="80" height="80" as="geometry" />
        </mxCell>
        <mxCell id="nJoHlSuJZ4k1W6Dq8Xgp-3" value="&lt;u&gt;학과&lt;/u&gt;" style="rounded=0;whiteSpace=wrap;html=1;sketch=1;curveFitting=1;jiggle=2;fillColor=#fff2cc;strokeColor=#d6b656;shadow=0;" vertex="1" parent="1">
          <mxGeometry x="510" y="200" width="120" height="60" as="geometry" />
        </mxCell>
        <mxCell id="nJoHlSuJZ4k1W6Dq8Xgp-4" value="과목" style="rounded=0;whiteSpace=wrap;html=1;sketch=1;curveFitting=1;jiggle=2;fillColor=#fff2cc;strokeColor=#d6b656;" vertex="1" parent="1">
          <mxGeometry x="190" y="525" width="120" height="60" as="geometry" />
        </mxCell>
        <mxCell id="nJoHlSuJZ4k1W6Dq8Xgp-5" value="학생" style="rounded=0;whiteSpace=wrap;html=1;sketch=1;curveFitting=1;jiggle=2;fillColor=#fff2cc;strokeColor=#d6b656;glass=0;shadow=0;gradientColor=none;" vertex="1" parent="1">
          <mxGeometry x="510" y="535" width="120" height="60" as="geometry" />
        </mxCell>
        <mxCell id="nJoHlSuJZ4k1W6Dq8Xgp-6" value="수강" style="rhombus;whiteSpace=wrap;html=1;sketch=1;curveFitting=1;jiggle=2;fillColor=#e1d5e7;strokeColor=#9673a6;" vertex="1" parent="1">
          <mxGeometry x="370" y="515" width="80" height="80" as="geometry" />
        </mxCell>
        <mxCell id="nJoHlSuJZ4k1W6Dq8Xgp-7" value="강의" style="rhombus;whiteSpace=wrap;html=1;sketch=1;curveFitting=1;jiggle=2;fillColor=#e1d5e7;strokeColor=#9673a6;" vertex="1" parent="1">
          <mxGeometry x="210" y="370" width="80" height="80" as="geometry" />
        </mxCell>
        <mxCell id="nJoHlSuJZ4k1W6Dq8Xgp-8" value="소속" style="rhombus;whiteSpace=wrap;html=1;sketch=1;curveFitting=1;jiggle=2;fillColor=#e1d5e7;strokeColor=#9673a6;" vertex="1" parent="1">
          <mxGeometry x="530" y="360" width="80" height="80" as="geometry" />
        </mxCell>
        <mxCell id="nJoHlSuJZ4k1W6Dq8Xgp-14" value="&lt;u&gt;교수코드&lt;/u&gt;" style="ellipse;whiteSpace=wrap;html=1;sketch=1;curveFitting=1;jiggle=2;shadow=1;fillColor=#f5f5f5;fontColor=#333333;strokeColor=#666666;" vertex="1" parent="1">
          <mxGeometry x="30" y="160" width="90" height="50" as="geometry" />
        </mxCell>
        <mxCell id="nJoHlSuJZ4k1W6Dq8Xgp-16" value="교수이름" style="ellipse;whiteSpace=wrap;html=1;sketch=1;curveFitting=1;jiggle=2;" vertex="1" parent="1">
          <mxGeometry x="30" y="250" width="90" height="50" as="geometry" />
        </mxCell>
        <mxCell id="nJoHlSuJZ4k1W6Dq8Xgp-17" value="&lt;u&gt;과목코드&lt;/u&gt;" style="ellipse;whiteSpace=wrap;html=1;sketch=1;curveFitting=1;jiggle=2;shadow=1;fillColor=#f5f5f5;fontColor=#333333;strokeColor=#666666;" vertex="1" parent="1">
          <mxGeometry x="30" y="450" width="90" height="50" as="geometry" />
        </mxCell>
        <mxCell id="nJoHlSuJZ4k1W6Dq8Xgp-18" value="과목명" style="ellipse;whiteSpace=wrap;html=1;sketch=1;curveFitting=1;jiggle=2;" vertex="1" parent="1">
          <mxGeometry x="30" y="525" width="90" height="50" as="geometry" />
        </mxCell>
        <mxCell id="nJoHlSuJZ4k1W6Dq8Xgp-19" value="&lt;u&gt;학과코드&lt;/u&gt;" style="ellipse;whiteSpace=wrap;html=1;sketch=1;curveFitting=1;jiggle=2;shadow=1;fillColor=#f5f5f5;fontColor=#333333;strokeColor=#666666;" vertex="1" parent="1">
          <mxGeometry x="700" y="160" width="90" height="50" as="geometry" />
        </mxCell>
        <mxCell id="nJoHlSuJZ4k1W6Dq8Xgp-20" value="종료일" style="ellipse;whiteSpace=wrap;html=1;sketch=1;curveFitting=1;jiggle=2;" vertex="1" parent="1">
          <mxGeometry x="30" y="590" width="90" height="50" as="geometry" />
        </mxCell>
        <mxCell id="nJoHlSuJZ4k1W6Dq8Xgp-21" value="시작일" style="ellipse;whiteSpace=wrap;html=1;sketch=1;curveFitting=1;jiggle=2;" vertex="1" parent="1">
          <mxGeometry x="120" y="650" width="90" height="50" as="geometry" />
        </mxCell>
        <mxCell id="nJoHlSuJZ4k1W6Dq8Xgp-22" value="&lt;u&gt;학번&lt;/u&gt;" style="ellipse;whiteSpace=wrap;html=1;sketch=1;curveFitting=1;jiggle=2;shadow=1;fillColor=#f5f5f5;fontColor=#333333;strokeColor=#666666;" vertex="1" parent="1">
          <mxGeometry x="700" y="450" width="90" height="50" as="geometry" />
        </mxCell>
        <mxCell id="nJoHlSuJZ4k1W6Dq8Xgp-23" value="이름" style="ellipse;whiteSpace=wrap;html=1;sketch=1;curveFitting=1;jiggle=2;" vertex="1" parent="1">
          <mxGeometry x="700" y="545" width="90" height="50" as="geometry" />
        </mxCell>
        <mxCell id="nJoHlSuJZ4k1W6Dq8Xgp-24" value="키" style="ellipse;whiteSpace=wrap;html=1;sketch=1;curveFitting=1;jiggle=2;" vertex="1" parent="1">
          <mxGeometry x="700" y="640" width="90" height="50" as="geometry" />
        </mxCell>
        <mxCell id="nJoHlSuJZ4k1W6Dq8Xgp-25" value="학과명" style="ellipse;whiteSpace=wrap;html=1;sketch=1;curveFitting=1;jiggle=2;" vertex="1" parent="1">
          <mxGeometry x="700" y="250" width="90" height="50" as="geometry" />
        </mxCell>
        <mxCell id="nJoHlSuJZ4k1W6Dq8Xgp-32" value="" style="endArrow=none;html=1;rounded=0;entryX=1;entryY=0.5;entryDx=0;entryDy=0;sketch=1;curveFitting=1;jiggle=2;" edge="1" parent="1" target="nJoHlSuJZ4k1W6Dq8Xgp-2">
          <mxGeometry relative="1" as="geometry">
            <mxPoint x="440" y="240" as="sourcePoint" />
            <mxPoint x="490" y="240" as="targetPoint" />
            <Array as="points">
              <mxPoint x="510" y="240" />
            </Array>
          </mxGeometry>
        </mxCell>
        <mxCell id="nJoHlSuJZ4k1W6Dq8Xgp-33" value="1" style="resizable=0;html=1;whiteSpace=wrap;align=right;verticalAlign=bottom;sketch=1;curveFitting=1;jiggle=2;" connectable="0" vertex="1" parent="nJoHlSuJZ4k1W6Dq8Xgp-32">
          <mxGeometry x="1" relative="1" as="geometry" />
        </mxCell>
        <mxCell id="nJoHlSuJZ4k1W6Dq8Xgp-34" value="" style="endArrow=none;html=1;rounded=0;exitX=1;exitY=0.65;exitDx=0;exitDy=0;exitPerimeter=0;entryX=0;entryY=0.5;entryDx=0;entryDy=0;sketch=1;curveFitting=1;jiggle=2;" edge="1" parent="1" source="nJoHlSuJZ4k1W6Dq8Xgp-1" target="nJoHlSuJZ4k1W6Dq8Xgp-2">
          <mxGeometry relative="1" as="geometry">
            <mxPoint x="310" y="340" as="sourcePoint" />
            <mxPoint x="400" y="340" as="targetPoint" />
          </mxGeometry>
        </mxCell>
        <mxCell id="nJoHlSuJZ4k1W6Dq8Xgp-35" value="N" style="resizable=0;html=1;whiteSpace=wrap;align=right;verticalAlign=bottom;sketch=1;curveFitting=1;jiggle=2;" connectable="0" vertex="1" parent="nJoHlSuJZ4k1W6Dq8Xgp-34">
          <mxGeometry x="1" relative="1" as="geometry" />
        </mxCell>
        <mxCell id="nJoHlSuJZ4k1W6Dq8Xgp-37" value="" style="endArrow=none;html=1;rounded=0;entryX=0.5;entryY=0;entryDx=0;entryDy=0;exitX=0.5;exitY=1;exitDx=0;exitDy=0;sketch=1;curveFitting=1;jiggle=2;" edge="1" parent="1" source="nJoHlSuJZ4k1W6Dq8Xgp-3" target="nJoHlSuJZ4k1W6Dq8Xgp-8">
          <mxGeometry relative="1" as="geometry">
            <mxPoint x="558" y="270" as="sourcePoint" />
            <mxPoint x="650" y="330" as="targetPoint" />
          </mxGeometry>
        </mxCell>
        <mxCell id="nJoHlSuJZ4k1W6Dq8Xgp-38" value="1" style="resizable=0;html=1;whiteSpace=wrap;align=right;verticalAlign=bottom;sketch=1;curveFitting=1;jiggle=2;" connectable="0" vertex="1" parent="nJoHlSuJZ4k1W6Dq8Xgp-37">
          <mxGeometry x="1" relative="1" as="geometry" />
        </mxCell>
        <mxCell id="nJoHlSuJZ4k1W6Dq8Xgp-39" value="" style="endArrow=none;html=1;rounded=0;exitX=0.5;exitY=0;exitDx=0;exitDy=0;entryX=0.5;entryY=1;entryDx=0;entryDy=0;sketch=1;curveFitting=1;jiggle=2;" edge="1" parent="1" source="nJoHlSuJZ4k1W6Dq8Xgp-4" target="nJoHlSuJZ4k1W6Dq8Xgp-7">
          <mxGeometry relative="1" as="geometry">
            <mxPoint x="360" y="400" as="sourcePoint" />
            <mxPoint x="520" y="400" as="targetPoint" />
          </mxGeometry>
        </mxCell>
        <mxCell id="nJoHlSuJZ4k1W6Dq8Xgp-40" value="1" style="resizable=0;html=1;whiteSpace=wrap;align=right;verticalAlign=bottom;sketch=1;curveFitting=1;jiggle=2;" connectable="0" vertex="1" parent="nJoHlSuJZ4k1W6Dq8Xgp-39">
          <mxGeometry x="1" relative="1" as="geometry" />
        </mxCell>
        <mxCell id="nJoHlSuJZ4k1W6Dq8Xgp-46" value="" style="endArrow=none;html=1;rounded=0;exitX=0.5;exitY=1;exitDx=0;exitDy=0;entryX=0.5;entryY=0;entryDx=0;entryDy=0;sketch=1;curveFitting=1;jiggle=2;" edge="1" parent="1" source="nJoHlSuJZ4k1W6Dq8Xgp-1" target="nJoHlSuJZ4k1W6Dq8Xgp-7">
          <mxGeometry relative="1" as="geometry">
            <mxPoint x="220" y="260" as="sourcePoint" />
            <mxPoint x="500" y="400" as="targetPoint" />
          </mxGeometry>
        </mxCell>
        <mxCell id="nJoHlSuJZ4k1W6Dq8Xgp-47" value="N" style="resizable=0;html=1;whiteSpace=wrap;align=right;verticalAlign=bottom;sketch=1;curveFitting=1;jiggle=2;" connectable="0" vertex="1" parent="nJoHlSuJZ4k1W6Dq8Xgp-46">
          <mxGeometry x="1" relative="1" as="geometry" />
        </mxCell>
        <mxCell id="nJoHlSuJZ4k1W6Dq8Xgp-48" value="" style="endArrow=none;html=1;rounded=0;exitX=0;exitY=0.5;exitDx=0;exitDy=0;entryX=1;entryY=0.5;entryDx=0;entryDy=0;sketch=1;curveFitting=1;jiggle=2;" edge="1" parent="1" source="nJoHlSuJZ4k1W6Dq8Xgp-5" target="nJoHlSuJZ4k1W6Dq8Xgp-6">
          <mxGeometry relative="1" as="geometry">
            <mxPoint x="370" y="400" as="sourcePoint" />
            <mxPoint x="530" y="400" as="targetPoint" />
          </mxGeometry>
        </mxCell>
        <mxCell id="nJoHlSuJZ4k1W6Dq8Xgp-49" value="N" style="resizable=0;html=1;whiteSpace=wrap;align=right;verticalAlign=bottom;sketch=1;curveFitting=1;jiggle=2;" connectable="0" vertex="1" parent="nJoHlSuJZ4k1W6Dq8Xgp-48">
          <mxGeometry x="1" relative="1" as="geometry" />
        </mxCell>
        <mxCell id="nJoHlSuJZ4k1W6Dq8Xgp-53" value="" style="endArrow=none;html=1;rounded=0;entryX=0;entryY=0.5;entryDx=0;entryDy=0;exitX=1;exitY=0.5;exitDx=0;exitDy=0;sketch=1;curveFitting=1;jiggle=2;" edge="1" parent="1" source="nJoHlSuJZ4k1W6Dq8Xgp-14" target="nJoHlSuJZ4k1W6Dq8Xgp-1">
          <mxGeometry relative="1" as="geometry">
            <mxPoint x="370" y="400" as="sourcePoint" />
            <mxPoint x="530" y="400" as="targetPoint" />
          </mxGeometry>
        </mxCell>
        <mxCell id="nJoHlSuJZ4k1W6Dq8Xgp-54" value="" style="endArrow=none;html=1;rounded=0;exitX=1.022;exitY=0.34;exitDx=0;exitDy=0;exitPerimeter=0;sketch=1;curveFitting=1;jiggle=2;" edge="1" parent="1" source="nJoHlSuJZ4k1W6Dq8Xgp-16">
          <mxGeometry relative="1" as="geometry">
            <mxPoint x="370" y="400" as="sourcePoint" />
            <mxPoint x="190" y="230" as="targetPoint" />
          </mxGeometry>
        </mxCell>
        <mxCell id="nJoHlSuJZ4k1W6Dq8Xgp-55" value="" style="endArrow=none;html=1;rounded=0;entryX=0;entryY=0.5;entryDx=0;entryDy=0;exitX=1;exitY=0.5;exitDx=0;exitDy=0;sketch=1;curveFitting=1;jiggle=2;" edge="1" parent="1" source="nJoHlSuJZ4k1W6Dq8Xgp-17" target="nJoHlSuJZ4k1W6Dq8Xgp-4">
          <mxGeometry relative="1" as="geometry">
            <mxPoint x="370" y="400" as="sourcePoint" />
            <mxPoint x="530" y="400" as="targetPoint" />
          </mxGeometry>
        </mxCell>
        <mxCell id="nJoHlSuJZ4k1W6Dq8Xgp-56" value="" style="endArrow=none;html=1;rounded=0;entryX=0;entryY=0.5;entryDx=0;entryDy=0;exitX=1;exitY=0.5;exitDx=0;exitDy=0;sketch=1;curveFitting=1;jiggle=2;" edge="1" parent="1" source="nJoHlSuJZ4k1W6Dq8Xgp-18" target="nJoHlSuJZ4k1W6Dq8Xgp-4">
          <mxGeometry relative="1" as="geometry">
            <mxPoint x="370" y="400" as="sourcePoint" />
            <mxPoint x="530" y="400" as="targetPoint" />
          </mxGeometry>
        </mxCell>
        <mxCell id="nJoHlSuJZ4k1W6Dq8Xgp-57" value="" style="endArrow=none;html=1;rounded=0;entryX=0;entryY=0.5;entryDx=0;entryDy=0;exitX=0.989;exitY=0.32;exitDx=0;exitDy=0;exitPerimeter=0;sketch=1;curveFitting=1;jiggle=2;" edge="1" parent="1" source="nJoHlSuJZ4k1W6Dq8Xgp-20" target="nJoHlSuJZ4k1W6Dq8Xgp-4">
          <mxGeometry relative="1" as="geometry">
            <mxPoint x="130" y="600" as="sourcePoint" />
            <mxPoint x="530" y="400" as="targetPoint" />
          </mxGeometry>
        </mxCell>
        <mxCell id="nJoHlSuJZ4k1W6Dq8Xgp-58" value="" style="endArrow=none;html=1;rounded=0;entryX=0;entryY=0.5;entryDx=0;entryDy=0;exitX=0.578;exitY=-0.02;exitDx=0;exitDy=0;exitPerimeter=0;sketch=1;curveFitting=1;jiggle=2;" edge="1" parent="1" source="nJoHlSuJZ4k1W6Dq8Xgp-21" target="nJoHlSuJZ4k1W6Dq8Xgp-4">
          <mxGeometry relative="1" as="geometry">
            <mxPoint x="370" y="400" as="sourcePoint" />
            <mxPoint x="530" y="400" as="targetPoint" />
          </mxGeometry>
        </mxCell>
        <mxCell id="nJoHlSuJZ4k1W6Dq8Xgp-59" value="" style="endArrow=none;html=1;rounded=0;exitX=1;exitY=0.5;exitDx=0;exitDy=0;entryX=0;entryY=0.5;entryDx=0;entryDy=0;sketch=1;curveFitting=1;jiggle=2;" edge="1" parent="1" source="nJoHlSuJZ4k1W6Dq8Xgp-3" target="nJoHlSuJZ4k1W6Dq8Xgp-19">
          <mxGeometry relative="1" as="geometry">
            <mxPoint x="370" y="400" as="sourcePoint" />
            <mxPoint x="530" y="400" as="targetPoint" />
          </mxGeometry>
        </mxCell>
        <mxCell id="nJoHlSuJZ4k1W6Dq8Xgp-60" value="" style="endArrow=none;html=1;rounded=0;entryX=1;entryY=0.5;entryDx=0;entryDy=0;sketch=1;curveFitting=1;jiggle=2;" edge="1" parent="1" source="nJoHlSuJZ4k1W6Dq8Xgp-25" target="nJoHlSuJZ4k1W6Dq8Xgp-3">
          <mxGeometry relative="1" as="geometry">
            <mxPoint x="370" y="400" as="sourcePoint" />
            <mxPoint x="530" y="400" as="targetPoint" />
          </mxGeometry>
        </mxCell>
        <mxCell id="nJoHlSuJZ4k1W6Dq8Xgp-61" value="" style="endArrow=none;html=1;rounded=0;entryX=1;entryY=0.5;entryDx=0;entryDy=0;exitX=0;exitY=0.5;exitDx=0;exitDy=0;sketch=1;curveFitting=1;jiggle=2;" edge="1" parent="1" source="nJoHlSuJZ4k1W6Dq8Xgp-22" target="nJoHlSuJZ4k1W6Dq8Xgp-5">
          <mxGeometry relative="1" as="geometry">
            <mxPoint x="370" y="400" as="sourcePoint" />
            <mxPoint x="530" y="400" as="targetPoint" />
          </mxGeometry>
        </mxCell>
        <mxCell id="nJoHlSuJZ4k1W6Dq8Xgp-62" value="" style="endArrow=none;html=1;rounded=0;entryX=1;entryY=0.5;entryDx=0;entryDy=0;exitX=0;exitY=0.5;exitDx=0;exitDy=0;sketch=1;curveFitting=1;jiggle=2;" edge="1" parent="1" source="nJoHlSuJZ4k1W6Dq8Xgp-23" target="nJoHlSuJZ4k1W6Dq8Xgp-5">
          <mxGeometry relative="1" as="geometry">
            <mxPoint x="370" y="400" as="sourcePoint" />
            <mxPoint x="530" y="400" as="targetPoint" />
          </mxGeometry>
        </mxCell>
        <mxCell id="nJoHlSuJZ4k1W6Dq8Xgp-64" value="" style="endArrow=none;html=1;rounded=0;entryX=1;entryY=0.5;entryDx=0;entryDy=0;exitX=0;exitY=0.5;exitDx=0;exitDy=0;sketch=1;curveFitting=1;jiggle=2;" edge="1" parent="1" source="nJoHlSuJZ4k1W6Dq8Xgp-24" target="nJoHlSuJZ4k1W6Dq8Xgp-5">
          <mxGeometry relative="1" as="geometry">
            <mxPoint x="370" y="400" as="sourcePoint" />
            <mxPoint x="530" y="400" as="targetPoint" />
          </mxGeometry>
        </mxCell>
        <mxCell id="nJoHlSuJZ4k1W6Dq8Xgp-69" value="" style="endArrow=none;html=1;rounded=0;exitX=0.5;exitY=0;exitDx=0;exitDy=0;entryX=0.5;entryY=1;entryDx=0;entryDy=0;sketch=1;curveFitting=1;jiggle=2;" edge="1" parent="1" source="nJoHlSuJZ4k1W6Dq8Xgp-5" target="nJoHlSuJZ4k1W6Dq8Xgp-8">
          <mxGeometry relative="1" as="geometry">
            <mxPoint x="370" y="400" as="sourcePoint" />
            <mxPoint x="530" y="400" as="targetPoint" />
          </mxGeometry>
        </mxCell>
        <mxCell id="nJoHlSuJZ4k1W6Dq8Xgp-70" value="N" style="resizable=0;html=1;whiteSpace=wrap;align=right;verticalAlign=bottom;sketch=1;curveFitting=1;jiggle=2;" connectable="0" vertex="1" parent="nJoHlSuJZ4k1W6Dq8Xgp-69">
          <mxGeometry x="1" relative="1" as="geometry" />
        </mxCell>
        <mxCell id="nJoHlSuJZ4k1W6Dq8Xgp-71" value="" style="endArrow=none;html=1;rounded=0;entryX=1;entryY=0.5;entryDx=0;entryDy=0;exitX=0;exitY=0.5;exitDx=0;exitDy=0;sketch=1;curveFitting=1;jiggle=2;" edge="1" parent="1" source="nJoHlSuJZ4k1W6Dq8Xgp-6" target="nJoHlSuJZ4k1W6Dq8Xgp-4">
          <mxGeometry relative="1" as="geometry">
            <mxPoint x="370" y="520" as="sourcePoint" />
            <mxPoint x="530" y="520" as="targetPoint" />
          </mxGeometry>
        </mxCell>
        <mxCell id="nJoHlSuJZ4k1W6Dq8Xgp-72" value="1" style="resizable=0;html=1;whiteSpace=wrap;align=right;verticalAlign=bottom;sketch=1;curveFitting=1;jiggle=2;" connectable="0" vertex="1" parent="nJoHlSuJZ4k1W6Dq8Xgp-71">
          <mxGeometry x="1" relative="1" as="geometry" />
        </mxCell>
        <mxCell id="nJoHlSuJZ4k1W6Dq8Xgp-74" value="&lt;h1&gt;&lt;br&gt;&lt;/h1&gt;" style="text;html=1;strokeColor=none;fillColor=none;spacing=5;spacingTop=-20;whiteSpace=wrap;overflow=hidden;rounded=0;sketch=1;curveFitting=1;jiggle=2;" vertex="1" parent="1">
          <mxGeometry x="330" y="380" width="190" height="120" as="geometry" />
        </mxCell>
        <mxCell id="nJoHlSuJZ4k1W6Dq8Xgp-76" value="Actor" style="shape=umlActor;verticalLabelPosition=bottom;verticalAlign=top;html=1;outlineConnect=0;hachureGap=4;fontFamily=Architects Daughter;fontSource=https%3A%2F%2Ffonts.googleapis.com%2Fcss%3Ffamily%3DArchitects%2BDaughter;fontSize=20;sketch=1;curveFitting=1;jiggle=2;" vertex="1" parent="1">
          <mxGeometry x="365" y="340" width="95" height="125" as="geometry" />
        </mxCell>
      </root>
    </mxGraphModel>
  </diagram>
</mxfile>
